<svg width="32" height="32" viewBox="0 0 32 32" fill="none" xmlns="http://www.w3.org/2000/svg">
<path d="M18.808 7.404C19.5584 7.77899 20.4416 7.77899 21.192 7.404L26.0707 4.964C26.4843 4.75731 26.9755 4.77968 27.3686 5.02311C27.7617 5.26654 28.0007 5.69627 28 6.15867V23.1773C27.9997 23.6822 27.7143 24.1436 27.2627 24.3693L21.192 27.4053C20.4416 27.7803 19.5584 27.7803 18.808 27.4053L13.192 24.5973C12.4416 24.2223 11.5584 24.2223 10.808 24.5973L5.92933 27.0373C5.51549 27.2441 5.02403 27.2216 4.63082 26.9779C4.23761 26.7341 3.99886 26.304 4 25.8413V8.824C4.00027 8.31911 4.28569 7.85768 4.73733 7.632L10.808 4.596C11.5584 4.22101 12.4416 4.22101 13.192 4.596M20 7.68533V27.6853M12 4.31467V24.3147" stroke="white" stroke-width="2.66667" stroke-linecap="round" stroke-linejoin="round"/>
</svg>
