<svg width="32" height="32" viewBox="0 0 32 32" fill="none" xmlns="http://www.w3.org/2000/svg">
<path d="M16 26.6667V29.3333M16 2.66667V5.33333M22.6667 26.6667V29.3333M22.6667 2.66667V5.33333M2.66667 16H5.33333M2.66667 22.6667H5.33333M2.66667 9.33333H5.33333M26.6667 16H29.3333M26.6667 22.6667H29.3333M26.6667 9.33333H29.3333M9.33333 26.6667V29.3333M9.33333 2.66667V5.33333" stroke="white" stroke-width="2.66667" stroke-linecap="round" stroke-linejoin="round"/>
<path d="M8 5.33333H24C25.4718 5.33333 26.6667 6.52823 26.6667 8V24C26.6667 25.4718 25.4718 26.6667 24 26.6667H8C6.52823 26.6667 5.33333 25.4718 5.33333 24V8C5.33333 6.52823 6.52823 5.33333 8 5.33333" stroke="white" stroke-width="2.66667" stroke-linecap="round" stroke-linejoin="round"/>
<path d="M12 10.6667H20C20.7359 10.6667 21.3333 11.2641 21.3333 12V20C21.3333 20.7359 20.7359 21.3333 20 21.3333H12C11.2641 21.3333 10.6667 20.7359 10.6667 20V12C10.6667 11.2641 11.2641 10.6667 12 10.6667" stroke="white" stroke-width="2.66667" stroke-linecap="round" stroke-linejoin="round"/>
</svg>
