<svg width="19" height="18" viewBox="0 0 19 18" fill="none" xmlns="http://www.w3.org/2000/svg">
<path d="M10.854 12.426C11.173 12.5725 11.5511 12.4781 11.7637 12.1987L12.03 11.85C12.3133 11.4723 12.7578 11.25 13.23 11.25H15.48C16.3079 11.25 16.98 11.9221 16.98 12.75V15C16.98 15.8279 16.3079 16.5 15.48 16.5C8.02913 16.5 1.97998 10.4509 1.97998 3C1.97998 2.17157 2.65155 1.5 3.47998 1.5H5.72998C6.55785 1.5 7.22998 2.17213 7.22998 3V5.25C7.22998 5.72214 7.00769 6.16672 6.62998 6.45L6.27898 6.71325C5.99508 6.93002 5.90346 7.31693 6.05998 7.638C7.08499 9.7199 8.7708 11.4036 10.854 12.426" stroke="#0B6B4A" stroke-width="1.5" stroke-linecap="round" stroke-linejoin="round"/>
</svg>
