<svg width="20" height="20" viewBox="0 0 20 20" fill="none" xmlns="http://www.w3.org/2000/svg">
<path d="M9.18083 2.345C9.2545 1.95059 9.59877 1.66467 10 1.66467C10.4012 1.66467 10.7455 1.95059 10.8192 2.345L11.695 6.97667C11.8223 7.65057 12.3494 8.1777 13.0233 8.305L17.655 9.18083C18.0494 9.2545 18.3353 9.59877 18.3353 10C18.3353 10.4012 18.0494 10.7455 17.655 10.8192L13.0233 11.695C12.3494 11.8223 11.8223 12.3494 11.695 13.0233L10.8192 17.655C10.7455 18.0494 10.4012 18.3353 10 18.3353C9.59877 18.3353 9.2545 18.0494 9.18083 17.655L8.305 13.0233C8.1777 12.3494 7.65057 11.8223 6.97667 11.695L2.345 10.8192C1.95059 10.7455 1.66467 10.4012 1.66467 10C1.66467 9.59877 1.95059 9.2545 2.345 9.18083L6.97667 8.305C7.65057 8.1777 8.1777 7.65057 8.305 6.97667M16.6667 1.66667V5M18.3333 3.33333H15" stroke="#44C767" stroke-width="1.66667" stroke-linecap="round" stroke-linejoin="round"/>
<path d="M1.66667 16.6667C1.66667 17.5865 2.41347 18.3333 3.33333 18.3333C4.25319 18.3333 5 17.5865 5 16.6667C5 15.7468 4.25319 15 3.33333 15C2.41347 15 1.66667 15.7468 1.66667 16.6667" stroke="#44C767" stroke-width="1.66667" stroke-linecap="round" stroke-linejoin="round"/>
</svg>
