<svg width="32" height="32" viewBox="0 0 32 32" fill="none" xmlns="http://www.w3.org/2000/svg">
<path d="M21.3333 21.3333L25.3333 10.6667L29.3333 21.3333C28.1733 22.2 26.7733 22.6667 25.3333 22.6667C23.8933 22.6667 22.4933 22.2 21.3333 21.3333M2.66667 21.3333L6.66667 10.6667L10.6667 21.3333C9.50667 22.2 8.10667 22.6667 6.66667 22.6667C5.22667 22.6667 3.82667 22.2 2.66667 21.3333M9.33333 28H22.6667M16 4V28M4 9.33333H6.66667C9.33333 9.33333 13.3333 8 16 6.66667C18.6667 8 22.6667 9.33333 25.3333 9.33333H28" stroke="white" stroke-width="2.66667" stroke-linecap="round" stroke-linejoin="round"/>
</svg>
