<svg width="32" height="32" viewBox="0 0 32 32" fill="none" xmlns="http://www.w3.org/2000/svg">
<path d="M13.3333 16H18.6667M13.3333 10.6667H18.6667M18.6667 28V24C18.6667 22.5282 17.4718 21.3333 16 21.3333C14.5282 21.3333 13.3333 22.5282 13.3333 24V28" stroke="white" stroke-width="2.66667" stroke-linecap="round" stroke-linejoin="round"/>
<path d="M8 13.3333H5.33333C3.86156 13.3333 2.66667 14.5282 2.66667 16V25.3333C2.66667 26.8051 3.86156 28 5.33333 28H26.6667C28.1384 28 29.3333 26.8051 29.3333 25.3333V12C29.3333 10.5282 28.1384 9.33333 26.6667 9.33333H24" stroke="white" stroke-width="2.66667" stroke-linecap="round" stroke-linejoin="round"/>
<path d="M8 28V6.66667C8 5.19489 9.19489 4 10.6667 4H21.3333C22.8051 4 24 5.19489 24 6.66667V28" stroke="white" stroke-width="2.66667" stroke-linecap="round" stroke-linejoin="round"/>
</svg>
