<svg width="20" height="20" viewBox="0 0 20 20" fill="none" xmlns="http://www.w3.org/2000/svg">
<path d="M3.33333 2.5H7.5C7.95993 2.5 8.33333 2.8734 8.33333 3.33333V9.16667C8.33333 9.6266 7.95993 10 7.5 10H3.33333C2.8734 10 2.5 9.6266 2.5 9.16667V3.33333C2.5 2.8734 2.8734 2.5 3.33333 2.5" stroke="#44C767" stroke-width="1.66667" stroke-linecap="round" stroke-linejoin="round"/>
<path d="M12.5 2.5H16.6667C17.1266 2.5 17.5 2.8734 17.5 3.33333V5.83333C17.5 6.29326 17.1266 6.66667 16.6667 6.66667H12.5C12.0401 6.66667 11.6667 6.29326 11.6667 5.83333V3.33333C11.6667 2.8734 12.0401 2.5 12.5 2.5" stroke="#44C767" stroke-width="1.66667" stroke-linecap="round" stroke-linejoin="round"/>
<path d="M12.5 10H16.6667C17.1266 10 17.5 10.3734 17.5 10.8333V16.6667C17.5 17.1266 17.1266 17.5 16.6667 17.5H12.5C12.0401 17.5 11.6667 17.1266 11.6667 16.6667V10.8333C11.6667 10.3734 12.0401 10 12.5 10" stroke="#44C767" stroke-width="1.66667" stroke-linecap="round" stroke-linejoin="round"/>
<path d="M3.33333 13.3333H7.5C7.95993 13.3333 8.33333 13.7067 8.33333 14.1667V16.6667C8.33333 17.1266 7.95993 17.5 7.5 17.5H3.33333C2.8734 17.5 2.5 17.1266 2.5 16.6667V14.1667C2.5 13.7067 2.8734 13.3333 3.33333 13.3333" stroke="#44C767" stroke-width="1.66667" stroke-linecap="round" stroke-linejoin="round"/>
</svg>
